<?xml version="1.0" encoding="utf-8"?>
<!DOCTYPE svg PUBLIC "-//W3C//DTD SVG 1.1//EN" "http://www.w3.org/Graphics/SVG/1.1/DTD/svg11.dtd">
<svg version="1.1" xmlns="http://www.w3.org/2000/svg" xmlns:xlink="http://www.w3.org/1999/xlink">
    <symbol id="close" viewBox="0 0 30 30">
        <path d="M15 0c-8.3 0-15 6.7-15 15s6.7 15 15 15 15-6.7 15-15-6.7-15-15-15zm5.7 19.3c.4.4.4 1 0 1.4-.2.2-.4.3-.7.3s-.5-.1-.7-.3l-4.3-4.3-4.3 4.3c-.2.2-.4.3-.7.3s-.5-.1-.7-.3c-.4-.4-.4-1 0-1.4l4.3-4.3-4.3-4.3c-.4-.4-.4-1 0-1.4s1-.4 1.4 0l4.3 4.3 4.3-4.3c.4-.4 1-.4 1.4 0s.4 1 0 1.4l-4.3 4.3 4.3 4.3z"/>
    </symbol>
    <symbol id="menu" viewBox="0 0 22 22">
        <path d="M1 5h20c.6 0 1-.4 1-1s-.4-1-1-1h-20c-.6 0-1 .4-1 1s.4 1 1 1zm20 5h-20c-.6 0-1 .4-1 1s.4 1 1 1h20c.6 0 1-.4 1-1s-.4-1-1-1zm0 7h-20c-.6 0-1 .4-1 1s.4 1 1 1h20c.6 0 1-.4 1-1s-.4-1-1-1z"/>
    </symbol>
    <symbol id="academia" viewBox="0 0 24 24">
        <path fill-rule="evenodd" clip-rule="evenodd" d="M0.062,0c-0.07,0.01-0.065,0.095-0.06,0.18c0,7.939,0,15.879,0,23.818 c8,0,15.998,0,23.998,0c0-8,0-15.999,0-23.998C16.021,0,8.042,0,0.062,0z M18.24,17.998c-1.859,0-3.719,0-5.579,0 c0-0.199,0-0.4,0-0.6c0.548-0.074,1.138-0.102,1.319-0.541c0.014-1.072-0.504-1.615-0.719-2.459c-1.44,0-2.88,0-4.32,0 c-0.245,0.91-1.814,3.055,0.36,2.939c0,0.221,0,0.439,0,0.66c-1.18,0-2.36,0-3.54,0c0-0.18,0-0.359,0-0.541 c0.141-0.209,0.584-0.172,0.78-0.359c0.436-0.418,0.692-1.775,0.96-2.459c0.931-2.377,2.031-5.051,2.879-7.26 c-0.176-0.463-0.377-0.902-0.54-1.38c1.04,0,2.08,0,3.12,0c1.021,2.554,2.164,5.569,3.3,8.399c0.434,1.084,0.779,2.828,1.979,3 C18.24,17.598,18.24,17.799,18.24,17.998z"/>
        <path fill-rule="evenodd" clip-rule="evenodd" d="M9.362,13.199c1.12,0,2.24,0,3.359,0c-0.54-1.481-1.1-2.94-1.74-4.32 C10.492,10.369,9.88,11.738,9.362,13.199z"/>
    </symbol>
    <symbol id="facebook" viewBox="0 0 24 24">
        <path d="M17.4 12h-3.2v12h-4.4v-12h-2.9v-4.1h2.9v-2.4c0-3.5.9-5.5 4.8-5.5h3.2v4.1h-2c-1.5 0-1.6.6-1.6 1.7v2.1h3.6l-.4 4.1z"/>
    </symbol>
    <symbol id="twitter" viewBox="0 1 24 23">
        <path d="M21.5 7.6v.6c0 6.6-5 14.1-14 14.1-2.8 0-5.4-.8-7.6-2.2l1.2.1c2.3 0 4.4-.8 6.1-2.1-2.2 0-4-1.5-4.6-3.4.3.1.6.1.9.1.5 0 .9-.1 1.3-.2-2.1-.6-3.8-2.6-3.8-5 .7.4 1.4.6 2.2.6-1.3-.9-2.2-2.4-2.2-4.1 0-.9.2-1.8.7-2.5 2.4 3 6.1 5 10.2 5.2-.1-.4-.1-.7-.1-1.1 0-2.7 2.2-5 4.9-5 1.4 0 2.7.6 3.6 1.6 1-.3 2.1-.7 3-1.3-.4 1.2-1.1 2.1-2.2 2.7 1-.1 1.9-.4 2.8-.8-.6 1.1-1.4 2-2.4 2.7z"/>
    </symbol>
    <symbol id="direction-horizontal" viewBox="-2 6 16 16">
        <path d="M13.7 13.3l-5-5c-.4-.4-1-.4-1.4 0s-.4 1 0 1.4l3.3 3.3h-11.6c-.6 0-1 .4-1 1s.4 1 1 1h11.6l-3.3 3.3c-.4.4-.4 1 0 1.4.2.2.4.3.7.3s.5-.1.7-.3l5-5c.2-.2.3-.5.3-.7s-.1-.5-.3-.7z"/>
    </symbol>            
    <symbol id="direction-vertical" viewBox="-2 6 16 16">
        <path d="M6.7 21.7l5-5c.4-.4.4-1 0-1.4s-1-.4-1.4 0l-3.3 3.3v-11.6c0-.6-.4-1-1-1s-1 .4-1 1v11.6l-3.3-3.3c-.4-.4-1-.4-1.4 0-.2.2-.3.4-.3.7 0 .3.1.5.3.7l5 5c.2.2.4.3.7.3s.5-.1.7-.3z"/>
    </symbol>
    <symbol id="drop-down" viewBox="0 0 16 16">
        <polyline stroke-width="2" stroke-linecap="round" stroke-linejoin="round" stroke-miterlimit="10" points="1,5 8,12 15,5" fill="none"></polyline>
    </symbol>
</svg>